<svg id="Layer_1" data-name="Layer 1" xmlns="http://www.w3.org/2000/svg" viewBox="0 0 178.84 189.76"><defs><style>.cls-1{fill:#beaeff;opacity:0.23;}.cls-2,.cls-3{fill:none;stroke-linecap:round;stroke-linejoin:round;}.cls-2{stroke:#beaeff;stroke-width:5px;}.cls-3{stroke:#8256d8;stroke-width:8px;}</style></defs><title>bridge_icons_landingpage_0</title><path class="cls-1" d="M42.16,89.66l42.35,11a12.05,12.05,0,0,1,8.32,7.59l14.86,41.17a4.27,4.27,0,0,0,8-.05L154.36,38.35a4.27,4.27,0,0,0-5.8-5.29L41.47,81.64A4.27,4.27,0,0,0,42.16,89.66Z"/><line class="cls-2" x1="119.52" y1="59.37" x2="83.83" y2="98.47"/><path class="cls-3" d="M27.43,94.47l42.35,11a12.05,12.05,0,0,1,8.32,7.59L93,154.28a4.27,4.27,0,0,0,8.05-.05L139.63,43.16a4.27,4.27,0,0,0-5.8-5.29L26.74,86.44A4.28,4.28,0,0,0,27.43,94.47Z"/></svg>